<svg width="96" height="33" viewBox="0 0 96 33" fill="none" xmlns="http://www.w3.org/2000/svg">
<g clip-path="url(#clip0)">
<path fill-rule="evenodd" clip-rule="evenodd" d="M52.4718 15.9046V15.9052C52.4438 15.8811 52.4131 15.8608 52.3803 15.843C52.3189 15.8101 52.2502 15.7928 52.1798 15.7923C52.0327 15.7975 51.8915 15.8513 51.7798 15.9449C51.7343 15.9799 51.6915 16.0185 51.6513 16.0598C51.6148 16.0969 51.5798 16.1361 51.547 16.1773C51.3037 16.5039 51.1132 16.8648 50.9831 17.2483C50.9556 17.323 50.928 17.4009 50.9021 17.4782C50.818 17.73 50.7413 18.0037 50.6736 18.2905C50.6233 18.5084 50.5773 18.7315 50.5376 18.9618C50.4138 19.6828 50.3514 20.4121 50.3503 21.143C50.3487 21.5113 50.3683 21.8791 50.4096 22.2453C50.4191 22.3278 50.4302 22.4077 50.4429 22.4845C50.4736 22.6935 50.5207 22.9004 50.5826 23.1031C50.6164 23.2123 50.6588 23.3188 50.709 23.4223C50.8487 23.7018 51.0265 23.8575 51.2381 23.8575C51.3206 23.8538 51.4016 23.8324 51.474 23.7948C51.5804 23.7441 51.6761 23.6741 51.7565 23.5895C52.0787 23.2577 52.3718 22.6397 52.5999 21.8702C52.6554 21.6821 52.7073 21.4862 52.7543 21.2809C52.8104 21.0374 52.8602 20.7851 52.9025 20.5234C52.9575 20.1895 53.0004 19.8447 53.0284 19.4937C53.0543 19.1672 53.0681 18.8365 53.0681 18.5073C53.0956 17.7864 52.9972 17.066 52.776 16.3769C52.7152 16.1982 52.611 16.0363 52.4718 15.9046M26.8041 17.0769C26.8194 16.9698 26.8269 16.8616 26.8263 16.7535C26.8369 16.5043 26.774 16.2572 26.6449 16.0414C26.5338 15.8497 26.329 15.7274 26.1042 15.7175C25.2974 15.7186 24.7323 17.2806 24.4366 18.5161H24.8672C25.8894 18.5161 26.6697 17.8678 26.8041 17.0769M11.0612 10.4863H9.95756C9.85968 10.9225 9.78773 11.3639 9.74276 11.8085L8.93542 16.6634H10.2808C12.0299 16.6634 13.3477 15.2084 13.3477 13.0472C13.3477 11.4658 12.46 10.4863 11.0612 10.4863M87.8243 26.3607C84.9271 26.3623 83.2469 25.1111 83.1426 23.1907C83.1284 22.9028 83.1458 22.6139 83.195 22.3297L84.2177 16.0842C84.0336 16.1087 83.932 16.1239 83.8294 16.1395C83.5976 16.1792 83.4876 16.1991 83.376 16.221C83.213 16.2519 83.0469 16.2863 82.8728 16.3234C82.7406 15.4233 82.7437 14.5096 82.8829 13.611C83.1024 13.6006 83.2754 13.587 83.5908 13.5744C83.7521 13.5682 84.7409 13.5546 84.8171 13.5546C85.1663 12.6174 85.7318 11.8348 85.9212 10.7272C86.244 10.6781 86.6027 10.6264 87.0338 10.5831C87.2243 10.5627 87.3423 10.5512 87.4719 10.5407C87.628 10.5272 87.7883 10.5162 87.9576 10.5052C88.4649 10.4739 89.0289 10.454 89.6548 10.454C89.6278 11.2977 89.5193 12.34 89.3575 13.5755H90.2452C91.6446 13.5755 92.199 13.4052 92.6561 13.0891C92.9079 13.529 93.0429 14.0232 93.0492 14.5268C93.0471 15.2002 92.8328 15.6746 90.6483 15.732C90.5013 15.7352 90.3299 15.7373 90.1648 15.7373H88.9813L87.9846 21.9583C87.9692 22.0904 87.9639 22.1187 87.9613 22.1495C87.9565 22.22 87.9533 22.278 87.9523 22.3349C87.9369 23.1907 88.3522 23.8578 89.0347 23.8578C90.0844 23.8578 90.3277 23.0407 90.7298 23.0407C91.7028 23.1687 92.262 23.7507 92.262 23.7507C91.5377 25.0954 89.7617 26.3607 87.8243 26.3607V26.3607ZM80.3352 24.8069L80.3347 24.8074C79.7151 25.7029 78.4237 26.2827 76.863 26.2827C76.6985 26.2827 76.5334 26.2765 76.371 26.2608C76.2112 26.2457 76.0525 26.2201 75.8964 26.1835C75.7462 26.1485 75.5996 26.0983 75.4594 26.0346C74.7738 25.7185 74.3304 25.042 74.5489 23.6743L74.5764 23.4366C74.5039 23.575 74.4272 23.7072 74.3463 23.8347C74.1902 24.0797 74.013 24.3122 73.8172 24.529C73.6331 24.7332 73.4331 24.9229 73.2183 25.0963C73.1141 25.1815 73.0083 25.2609 72.8998 25.3361C72.6898 25.4819 72.4703 25.6135 72.2417 25.73C71.8259 25.9432 71.3846 26.1067 70.9286 26.2169C70.7291 26.265 70.527 26.3021 70.3234 26.3282C70.1451 26.3507 69.9657 26.3622 69.7864 26.3627C69.6705 26.3627 69.5599 26.3564 69.452 26.346C69.4128 26.3423 69.3753 26.336 69.3367 26.3313C69.2721 26.323 69.2097 26.313 69.1489 26.301C69.1018 26.2916 69.0568 26.2807 69.0124 26.2692C68.9674 26.2577 68.9219 26.2441 68.8785 26.2305C68.8282 26.2148 68.778 26.1986 68.7298 26.1798C68.7055 26.171 68.6828 26.1579 68.6595 26.149C67.5051 25.648 67.1506 24.2939 67.4464 22.5145L68.2532 17.4538C68.2775 17.3075 68.2981 17.1686 68.3204 17.0317C68.3278 16.9784 68.3357 16.9267 68.3426 16.8755C68.3537 16.7945 68.3648 16.7156 68.3754 16.6362C68.3838 16.5709 68.3923 16.5056 68.3997 16.4419C68.4066 16.3829 68.4129 16.3238 68.4193 16.2658C68.4494 15.9916 68.4706 15.7194 68.4833 15.443C68.4849 15.4148 68.487 15.3861 68.4881 15.3573C68.4912 15.2649 68.4944 15.1698 68.4955 15.0747C68.4955 15.0449 68.4955 15.0157 68.4971 14.9854C68.4986 14.8845 68.4997 14.7832 68.4986 14.6782C68.4955 14.4008 68.4875 14.1098 68.4695 13.789C68.5272 13.7749 68.5907 13.7608 68.6595 13.7467C68.7166 13.7347 68.7769 13.7232 68.8404 13.7112L68.924 13.6976C68.9684 13.6898 69.0129 13.6814 69.0594 13.6741C69.0912 13.6689 69.1261 13.6642 69.1589 13.6589C69.2055 13.6522 69.252 13.6443 69.3012 13.6375C69.3361 13.6328 69.3737 13.6276 69.4102 13.6229C69.4599 13.6161 69.5091 13.6093 69.561 13.6015C69.6007 13.5963 69.6414 13.5916 69.6821 13.5868C69.734 13.5806 69.7858 13.5738 69.8403 13.5675C69.8826 13.5628 69.926 13.5576 69.9699 13.5534C70.0244 13.5466 70.0784 13.5414 70.134 13.5351L70.2752 13.5215C70.3308 13.5158 70.3868 13.5106 70.4424 13.5054L70.5916 13.4918C70.6492 13.4865 70.708 13.4813 70.7667 13.4771C70.8175 13.473 70.8677 13.4688 70.9191 13.4646L71.1026 13.4515L71.2587 13.44C71.3211 13.4364 71.3846 13.4333 71.4481 13.4291L71.6058 13.4192C71.6724 13.4155 71.7391 13.4124 71.8063 13.4087C71.8571 13.4066 71.9079 13.4035 71.9587 13.4019C72.0296 13.3983 72.1015 13.3956 72.1729 13.3925C72.2221 13.3909 72.2703 13.3883 72.3195 13.3868C72.3935 13.3841 72.4676 13.3826 72.5422 13.38C72.5904 13.3784 72.639 13.3774 72.6872 13.3758C72.766 13.3737 72.8448 13.3727 72.9237 13.3716C72.9681 13.3716 73.011 13.3695 73.0543 13.3695C73.1771 13.368 73.2993 13.3669 73.421 13.3669C73.448 14.4734 73.2326 15.9759 73.0173 17.3734L72.3179 21.6436C72.3047 21.7225 72.2385 22.515 72.2417 22.7109V22.7177C72.2327 22.934 72.2428 23.1508 72.2724 23.3661C72.2893 23.4784 72.3237 23.5876 72.375 23.69C72.4094 23.7615 72.4708 23.8174 72.5459 23.8467C72.5681 23.8545 72.5919 23.8582 72.6157 23.8582C72.7755 23.8582 73.0242 23.6988 73.3088 23.4073C73.7453 22.9377 74.1119 22.41 74.3976 21.8406C74.5151 21.6139 74.6288 21.3715 74.7341 21.116C74.8388 20.8605 74.9367 20.5904 75.0235 20.3083C75.0669 20.1678 75.1065 20.0247 75.1441 19.8779L75.5208 17.4522C75.5748 17.1231 75.6218 16.8097 75.6636 16.5025C75.7255 16.0433 75.7747 15.5961 75.8181 15.129C75.862 14.662 75.8943 14.1741 75.925 13.6302C76.5524 13.5613 78.9194 13.2807 80.7389 13.3126C80.6738 14.6641 80.5299 16.0109 80.3077 17.3462L79.339 23.3436C79.1781 24.319 79.5813 24.8069 80.3352 24.8069V24.8069ZM66.5835 8.29471C66.5681 8.46136 66.5501 8.63115 66.5316 8.80303L66.5353 8.80355C66.4581 9.49262 66.3507 10.2183 66.2295 10.9147L64.2382 23.3567C64.2218 23.4575 64.2122 23.5594 64.2085 23.6612C64.2085 23.6832 64.2069 23.7072 64.2064 23.7291C64.2059 23.8133 64.2112 23.8974 64.2233 23.9804C64.2255 23.9987 64.2302 24.0133 64.2334 24.0301C64.2445 24.0896 64.2604 24.1476 64.2805 24.2046C64.2884 24.226 64.2948 24.2469 64.3032 24.2662C64.327 24.3226 64.3567 24.3759 64.3921 24.4266C64.4064 24.4459 64.4223 24.4632 64.4366 24.4814C64.4641 24.5138 64.4937 24.5441 64.526 24.5723C64.5429 24.587 64.5588 24.6032 64.5767 24.6157C64.7767 24.75 65.0159 24.8174 65.2582 24.8079C65.0555 25.089 64.8016 25.3314 64.5085 25.5231C64.4725 25.5472 64.436 25.5717 64.399 25.5958C64.327 25.6407 64.253 25.6825 64.1763 25.7248C64.1271 25.7504 64.0763 25.7744 64.0255 25.799C63.9509 25.8345 63.8779 25.8711 63.7996 25.9024C63.6768 25.9531 63.5504 25.9991 63.4192 26.0393C63.361 26.0576 63.3001 26.0712 63.2409 26.0874C63.1441 26.1135 63.0478 26.1386 62.9473 26.1589C62.8848 26.1725 62.8224 26.183 62.7589 26.1934C62.6494 26.2127 62.5383 26.2284 62.4246 26.241C62.369 26.2472 62.3135 26.2545 62.2574 26.2592C62.086 26.2739 61.9114 26.2833 61.7326 26.2833C61.6585 26.2833 61.5839 26.2817 61.5098 26.2786C61.4823 26.2775 61.4548 26.2749 61.4273 26.2733C61.3807 26.2707 61.3331 26.2671 61.2866 26.2634C61.2527 26.2603 61.2199 26.2556 61.186 26.2514C61.1458 26.2472 61.1056 26.242 61.0659 26.2363C61.0263 26.231 60.9919 26.2242 60.9548 26.2169C60.9173 26.2096 60.8845 26.2033 60.8501 26.196C60.8104 26.1877 60.7723 26.1777 60.7337 26.1678C60.703 26.16 60.6729 26.1501 60.6432 26.1412C60.6025 26.1292 60.5618 26.1161 60.5221 26.1025C60.4972 26.0926 60.4729 26.0827 60.4485 26.0727C60.4057 26.0555 60.3628 26.0383 60.3216 26.0189C60.3062 26.0116 60.2919 26.0022 60.2771 25.9944C60.0581 25.8852 59.8682 25.7279 59.7216 25.5352C59.7131 25.5242 59.7042 25.5148 59.6967 25.5038C59.6645 25.4578 59.6348 25.4108 59.6073 25.3617C59.5989 25.3455 59.5899 25.3299 59.5809 25.3142C59.5555 25.264 59.5322 25.2113 59.511 25.1575C59.5031 25.1381 59.4957 25.1188 59.4883 25.0989C59.4687 25.043 59.4507 24.984 59.4359 24.9229C59.4301 24.9025 59.4259 24.88 59.4216 24.8591C59.4079 24.7938 59.3952 24.7285 59.3862 24.657C59.3841 24.6397 59.3835 24.6188 59.3809 24.6C59.3735 24.5227 59.3671 24.4449 59.3656 24.3608C59.3624 24.1309 59.3798 23.901 59.4174 23.6743L61.4627 10.9941C61.4892 10.83 61.5146 10.6717 61.5379 10.5176C61.6315 9.94243 61.6923 9.36202 61.7204 8.77952C61.7384 8.34016 61.7347 7.87416 61.7045 7.33084C61.7802 7.31151 61.8664 7.29323 61.9611 7.27494C62.0558 7.25666 62.1584 7.23785 62.2685 7.22009C62.4383 7.1924 62.6251 7.16576 62.8277 7.13964C62.9213 7.1271 63.0182 7.11613 63.1176 7.10463C63.416 7.07068 63.7398 7.03933 64.0821 7.01269C64.3101 6.9944 64.5455 6.97768 64.7863 6.96462C65.3883 6.92962 66.0248 6.90872 66.6559 6.90872C66.6559 7.32405 66.6295 7.79528 66.5835 8.29471V8.29471ZM58.2899 18.4021C58.3132 20.2013 57.7175 21.9561 56.5986 23.3855L56.5948 23.386C56.1372 23.9612 55.5965 24.469 54.9897 24.8932C54.9892 24.8937 54.9881 24.8947 54.987 24.8953C54.8722 24.9752 54.7553 25.052 54.6352 25.1256C54.6204 25.1356 54.6051 25.1444 54.5908 25.1544C54.4839 25.2197 54.3749 25.2824 54.2644 25.343C54.2421 25.3545 54.2231 25.366 54.2025 25.3769C54.0908 25.4354 53.9792 25.4924 53.8681 25.5467C53.8491 25.5556 53.83 25.565 53.811 25.5734C53.6824 25.6334 53.5517 25.6914 53.4184 25.7447C53.4163 25.7463 53.4136 25.7478 53.411 25.7484C53.1348 25.8596 52.8528 25.9552 52.5661 26.0362C52.5301 26.0467 52.4941 26.055 52.4582 26.0644C52.3534 26.0926 52.2476 26.1198 52.1407 26.1438C52.0926 26.1548 52.0434 26.1658 51.9942 26.1747C51.8984 26.1945 51.8016 26.2133 51.7043 26.2306C51.6503 26.24 51.5963 26.2494 51.5413 26.2572C51.4456 26.2718 51.3493 26.2844 51.2519 26.2964C51.1969 26.3027 51.1419 26.31 51.0863 26.3157C50.9826 26.3267 50.8779 26.334 50.7731 26.3408C50.725 26.3439 50.6763 26.3486 50.6271 26.3512C50.4737 26.3586 50.3187 26.3633 50.1626 26.3633C49.9732 26.3633 49.7891 26.3549 49.6097 26.3403C49.5489 26.335 49.4912 26.3256 49.4314 26.3183C49.3151 26.3053 49.1976 26.2933 49.0854 26.275C49.0161 26.263 48.9516 26.2457 48.8828 26.2311C48.7844 26.2107 48.6849 26.1909 48.5897 26.1658C48.5204 26.147 48.4537 26.124 48.386 26.1026C48.2971 26.0749 48.2077 26.0482 48.1241 26.0153C48.0559 25.9897 47.9903 25.9605 47.9252 25.9323C47.8453 25.8983 47.766 25.8638 47.6898 25.8262C47.6247 25.7943 47.5618 25.7588 47.4993 25.7243C47.4274 25.6836 47.3554 25.6428 47.2867 25.5995C47.2253 25.5603 47.1655 25.5195 47.1068 25.4772C47.0417 25.4313 46.9782 25.3848 46.9158 25.3357C46.8586 25.2902 46.8042 25.2432 46.7486 25.1956C46.6904 25.1439 46.6338 25.0912 46.5788 25.0368C46.5238 24.9825 46.4746 24.9329 46.4243 24.8785C46.3746 24.8237 46.3238 24.7636 46.2751 24.704C46.2264 24.645 46.1804 24.5886 46.1354 24.528C46.091 24.4674 46.0487 24.4037 46.0069 24.3394C45.9651 24.2751 45.9217 24.2124 45.8825 24.1456C45.8434 24.0787 45.8095 24.0129 45.7741 23.946C45.7386 23.8791 45.6995 23.807 45.6662 23.7334C45.6344 23.6655 45.6069 23.5934 45.5783 23.5228C45.5471 23.4471 45.5143 23.3719 45.4868 23.293C45.4619 23.2214 45.4413 23.1467 45.4191 23.0741C45.3942 22.991 45.3667 22.9095 45.345 22.8244C45.3276 22.7533 45.3149 22.6781 45.299 22.605C45.2445 22.3521 45.2059 22.0961 45.1831 21.838C45.1831 21.8359 45.1831 21.8333 45.1831 21.8312C45.1678 21.6416 45.1593 21.4488 45.1593 21.2498C45.1593 18.4721 46.4534 16.1405 48.495 14.7331C48.8257 14.5048 49.1743 14.3026 49.5373 14.1271C49.5452 14.1229 49.5531 14.1193 49.5616 14.1156C49.9213 13.9432 50.2938 13.7969 50.6758 13.6783L50.7303 13.6616C50.9165 13.6052 51.1059 13.555 51.2985 13.5112C51.3228 13.5054 51.3466 13.5012 51.371 13.496C51.5493 13.4568 51.7307 13.4223 51.9138 13.3947C51.9349 13.3915 51.9556 13.3873 51.9767 13.3842C52.1672 13.3565 52.3613 13.3356 52.5566 13.3189L52.683 13.3105C52.8819 13.298 53.0819 13.2886 53.2851 13.2886C53.457 13.2886 53.6242 13.2975 53.7887 13.3095C53.8348 13.3132 53.8808 13.3179 53.9263 13.322C54.0586 13.3351 54.1876 13.3523 54.3146 13.3732C54.3469 13.3785 54.3818 13.3826 54.413 13.3884C54.5622 13.4161 54.7077 13.449 54.849 13.4882C54.8934 13.5002 54.9384 13.5143 54.9828 13.5273C55.0844 13.5577 55.1833 13.5911 55.2807 13.6266C55.3278 13.6438 55.3754 13.6616 55.4219 13.6804C55.5452 13.7306 55.6669 13.7839 55.7822 13.8429C55.8304 13.8674 55.8759 13.8946 55.9219 13.9202C55.996 13.9615 56.0679 14.0033 56.1388 14.0477C56.1933 14.0816 56.2478 14.1172 56.3007 14.1537C56.3626 14.1976 56.4224 14.2425 56.4816 14.2885C56.571 14.357 56.6552 14.428 56.7377 14.5027C56.7832 14.5445 56.8292 14.5858 56.8731 14.6291C56.9287 14.684 56.9821 14.7409 57.035 14.7994C57.0684 14.836 57.1006 14.8742 57.1324 14.9118C57.2535 15.0544 57.3652 15.2038 57.4667 15.3595C57.4667 15.3616 57.4694 15.3631 57.4704 15.3647C57.5191 15.4405 57.5646 15.5193 57.609 15.5982C57.6286 15.6338 57.6482 15.6693 57.6678 15.7048C58.0937 16.5422 58.3069 17.4675 58.2899 18.4021V18.4021ZM40.9296 23.3584L40.9312 23.3574C40.4604 24.1055 40.0726 24.9006 39.7742 25.7292C38.8605 26.2035 37.8368 26.2824 36.8141 26.2824C35.9534 26.2824 35.173 25.8608 34.7429 23.6734L33.4784 17.4519C33.2218 16.1924 32.8245 14.9636 32.2939 13.7882C32.7478 13.6821 33.2081 13.6038 33.6721 13.5531H33.6747C33.7805 13.5405 33.89 13.528 34.0027 13.5165C34.0149 13.5144 34.0271 13.5134 34.0398 13.5123C34.1466 13.5014 34.2567 13.4904 34.3699 13.481C34.3815 13.481 34.3937 13.4784 34.4053 13.4779C34.6551 13.4559 34.918 13.4361 35.1958 13.4199C35.2106 13.4199 35.2264 13.4183 35.2402 13.4173C35.3561 13.411 35.474 13.4052 35.5941 13.3995C35.6343 13.3979 35.6756 13.3969 35.7158 13.3943C35.8142 13.3906 35.9137 13.387 36.0142 13.3838C36.0618 13.3838 36.11 13.3807 36.1586 13.3791C36.2607 13.3765 36.3644 13.3749 36.4687 13.3729C36.5136 13.3729 36.5581 13.3708 36.6025 13.3708C36.7517 13.3681 36.902 13.3671 37.0554 13.3671C37.2786 13.7558 37.4686 14.1617 37.6241 14.5807C37.6749 14.716 37.7204 14.8503 37.7611 14.9835C37.8548 15.2823 37.9246 15.5879 37.9701 15.8977L38.8044 21.5644C39.5038 20.2202 40.1768 18.8222 40.7953 17.4258C41.2063 16.4954 41.5502 15.5383 41.8243 14.5614C41.9137 14.2348 41.992 13.9073 42.0602 13.5776C42.3666 13.552 42.6734 13.5311 42.9792 13.5139C43.1517 13.505 43.3231 13.4988 43.495 13.492C43.6241 13.4867 43.7537 13.4799 43.8828 13.4763C44.1273 13.4674 44.3701 13.4622 44.6135 13.4585C44.6648 13.4585 44.7166 13.4559 44.7679 13.4554C45.0573 13.4502 45.3462 13.4481 45.6335 13.447H45.8276C45.7456 14.2871 45.5181 15.1073 45.1547 15.8726C43.9707 18.4555 42.4909 20.8811 40.9296 23.3584V23.3584ZM25.5938 20.9347C25.4208 20.9483 25.242 20.9598 25.0589 20.9676C25.0198 20.9692 24.9812 20.9718 24.942 20.9733C24.7346 20.9812 24.522 20.9859 24.3019 20.9859H24.2474C24.249 21.083 24.2532 21.1787 24.2595 21.2732C24.3516 22.6926 24.9558 23.8717 26.2927 23.8717C26.3932 23.8712 26.4932 23.8655 26.5932 23.855C27.8598 23.7234 28.6026 22.8029 29.2517 22.8029C29.5575 22.8358 29.8517 22.935 30.113 23.0939L30.759 23.516C30.7585 23.5165 30.7574 23.5175 30.7569 23.5191C30.3051 24.1585 29.7289 24.706 29.0612 25.1292C27.7566 25.9531 26.2319 26.3825 24.678 26.3637C21.3524 26.3637 19.3441 24.5279 19.1542 21.5825C19.151 21.5344 19.1526 21.0987 19.1526 21.0987C19.1526 17.3853 21.6307 13.2948 27.1408 13.2948C27.9375 13.2807 28.7306 13.4029 29.484 13.6558C29.484 13.6573 29.4908 13.6573 29.4903 13.6589C30.8151 14.1307 31.5748 15.0449 31.5748 16.306C31.5748 17.7902 30.6045 20.5188 25.6346 20.9321V20.9315L25.5938 20.9347V20.9347ZM18.4173 12.9914L18.4167 12.9971C18.2517 15.195 16.8629 17.0057 14.6943 18.1179L16.6317 23.2319C17.1962 24.6299 17.5195 25.1925 18.1649 25.6403C18.012 25.7191 17.8543 25.7881 17.6925 25.8471C16.7185 26.1695 15.6953 26.3283 14.6673 26.3168C13.6716 26.3168 12.2723 26.0895 11.438 23.6117L9.95767 19.4402H8.50542L7.85891 23.4278C7.78114 23.8734 7.73194 24.3232 7.7113 24.7751V24.8974C7.70654 25.1539 7.76474 25.4078 7.8806 25.6382C7.88272 25.6418 7.88431 25.6455 7.88589 25.6491C6.78281 26.1496 5.24961 26.2802 4.36133 26.2802C3.5942 26.2802 2.88156 26.0357 2.84506 24.7349C2.84082 24.3786 2.87098 24.0223 2.93447 23.6713L4.8179 11.8097C4.9835 10.9231 5.0692 9.98223 5.07555 9.06799C5.07344 8.76707 5.08402 8.16159 5.08455 8.12345C5.08455 8.1224 5.08455 8.11979 5.08455 8.11979C5.71465 7.94687 7.85574 7.73059 9.80901 7.70499C9.93915 7.7029 10.0439 7.70185 10.1735 7.70185H12.003C13.3008 7.67155 14.5885 7.93486 15.7646 8.47086C16.0921 8.62915 16.4026 8.81879 16.6915 9.03664C16.9655 9.24352 17.2147 9.47966 17.4348 9.74035C17.7581 10.1217 18.0094 10.5569 18.1771 11.0239C18.3501 11.514 18.4368 12.0291 18.4342 12.5473C18.4342 12.6973 18.4278 12.8456 18.4173 12.9914V12.9914ZM91.1373 20.2839L91.1367 20.2844L91.4119 18.5803C92.5456 18.491 93.3683 18.2606 94.0481 17.8573C94.8729 17.3693 95.8538 16.4044 95.8538 14.5796C95.8549 13.599 95.6046 12.6341 95.1253 11.7721C94.628 10.8855 93.6751 10.3333 92.6393 10.3323C92.589 10.3323 92.5382 10.3339 92.488 10.3365C92.4282 8.84913 91.1775 7.67263 89.6527 7.6695C88.2455 7.66428 86.8392 7.76667 85.4483 7.97616C84.24 8.16058 83.2877 9.27072 83.0866 10.4524C83.0755 10.5193 79.8737 10.4524 77.7178 10.4524C76.0624 10.4524 75.1826 11.2575 75.1826 11.2575C75.1826 11.2575 74.3678 10.2153 72.2204 10.4524C71.1755 10.5042 70.1364 10.6369 69.1132 10.8495C69.3328 9.57164 69.4603 8.27969 69.4942 6.98408V6.8446C69.5032 5.29927 68.2403 4.03292 66.6579 4.00001H66.6563C64.5835 4.00001 62.2117 4.27637 61.0166 4.5684C59.6913 4.90954 58.7946 6.11373 58.8718 7.45008C58.9385 8.64904 58.3904 12.2188 58.3904 12.2188C57.0566 11.1305 55.3023 10.5089 53.2818 10.5089C51.447 10.5 49.6377 10.9305 48.0135 11.7632C47.4664 11.1426 46.6676 10.7884 45.829 10.7946H45.8274C44.2344 10.7946 42.9986 10.7743 41.8193 10.8725C40.9083 10.9362 40.0866 11.4299 39.6174 12.1947C39.5883 12.1414 39.5587 12.073 39.528 12.0208C39.0285 11.1426 38.0831 10.5945 37.0536 10.5872C34.9231 10.5872 31.2435 11.2026 31.0848 11.2763C29.824 10.722 28.4522 10.4509 27.0698 10.4822C25.0197 10.4545 23.0029 10.989 21.2481 12.0249C20.9613 7.8022 17.2405 4.92522 11.9996 4.92522C11.9996 4.92522 5.58115 5.16135 4.42411 5.40898C3.04539 5.70049 2.09733 6.93863 2.20049 8.31208C2.27774 9.33446 2.21478 10.3615 2.01374 11.3677L0.130302 23.2309C0.00967721 23.9503 -0.340557 26.0849 1.02864 27.6647C1.58044 28.302 2.60628 29.0611 4.35798 29.0611C5.18807 29.0611 7.30958 28.9744 9.07556 28.172C9.54483 27.9593 9.94586 27.6255 10.2347 27.2065C11.1934 28.2947 12.6017 29.0867 14.6645 29.1102C16.4675 29.0977 18.2436 28.6761 19.8514 27.8784C21.3063 28.7346 22.9797 29.1708 24.6779 29.1358C27.7501 29.1358 30.6282 27.917 32.4471 25.9036C33.4713 28.4687 35.3214 29.0632 36.8144 29.0632C38.099 29.0632 39.5978 28.9289 41.1019 28.1871C42.3404 27.5764 42.9277 25.5442 43.1869 25.0938C44.4418 27.5889 46.9686 29.1416 50.1625 29.1416C52.7057 29.1635 55.1785 28.325 57.1603 26.7682C57.2952 27.0002 57.4523 27.2191 57.6296 27.4228C58.2814 28.1688 59.5225 29.0606 61.734 29.0606C63.2995 29.0878 64.8369 28.6479 66.14 27.7995C66.8616 28.4755 68.0197 29.1405 69.7862 29.1405C71.1131 29.1217 72.4151 28.7905 73.5827 28.1751C74.4461 28.7644 75.5444 29.0622 76.8628 29.0622C78.9362 29.0622 80.7942 28.3548 82.0312 27.1365C83.0491 28.1228 84.8251 29.1416 87.8233 29.1416C90.6135 29.1416 93.3598 27.4009 94.7708 25.052C95.8538 23.2513 94.6253 20.1627 91.1373 20.2839V20.2839Z" fill="url(#paint0_linear)"/>
</g>
<defs>
<linearGradient id="paint0_linear" x1="1.18484" y1="16.5019" x2="94.2301" y2="16.5019" gradientUnits="userSpaceOnUse">
<stop stop-color="#5DBCE4"/>
<stop offset="1" stop-color="#3B80C0"/>
</linearGradient>
<clipPath id="clip0">
<rect y="0.720116" width="96" height="32" fill="white"/>
</clipPath>
</defs>
</svg>
